<?xml version="1.0" encoding="UTF-8" standalone="no"?>
<!DOCTYPE svg PUBLIC "-//W3C//DTD SVG 1.1//EN" "http://www.w3.org/Graphics/SVG/1.1/DTD/svg11.dtd">
<svg width="100%" height="100%" viewBox="0 0 539 199" version="1.1" xmlns="http://www.w3.org/2000/svg" xmlns:xlink="http://www.w3.org/1999/xlink" xml:space="preserve" xmlns:serif="http://www.serif.com/" style="fill-rule:evenodd;clip-rule:evenodd;stroke-linejoin:round;stroke-miterlimit:2;">
    <g>
        <path d="M67.413,125.851C31.537,125.851 5.577,98.473 5.577,64.486C5.577,30.5 31.537,3.122 67.413,3.122C98.567,3.122 120.99,22.475 127.362,48.673L99.983,48.673C95.263,35.928 83.697,26.723 67.413,26.723C46.407,26.723 32.01,42.537 32.01,64.486C32.01,86.436 46.407,102.25 67.413,102.25C83.697,102.25 95.263,93.045 99.983,80.3L127.362,80.3C120.99,106.498 98.567,125.851 67.413,125.851Z" style="fill:rgb(5,5,5);fill-rule:nonzero;"/>
        <rect x="147.218" y="5.482" width="25.962" height="118.009" style="fill:rgb(5,5,5);fill-rule:nonzero;"/>
        <path d="M330.726,125.851C294.85,125.851 268.889,98.473 268.889,64.486C268.889,30.5 294.85,3.122 330.726,3.122C361.879,3.122 384.302,22.475 390.674,48.673L363.295,48.673C358.576,35.928 347.01,26.723 330.726,26.723C309.719,26.723 295.323,42.537 295.323,64.486C295.323,86.436 309.719,102.25 330.726,102.25C347.01,102.25 358.576,93.045 363.295,80.3L390.674,80.3C384.302,106.498 361.879,125.851 330.726,125.851Z" style="fill:rgb(5,5,5);fill-rule:nonzero;"/>
        <path d="M208.655,21.292C219.811,8.387 237.895,3.122 251.37,3.122C254.682,3.122 257.992,3.359 261.539,4.069L261.539,29.841C256.418,28.992 251.667,29.23 248.534,29.605C233.743,31.377 220.161,41.19 220.161,64.834L220.161,123.491L194.152,123.491L194.152,76.632C194.152,39.193 199.563,31.794 208.655,21.292Z" style="fill:rgb(5,5,5);fill-rule:nonzero;"/>
        <path d="M152.492,155.68C153.182,154.973 153.528,154.11 153.528,153.09C153.528,152.104 153.182,151.258 152.492,150.55C151.801,149.843 150.946,149.489 149.927,149.489C148.94,149.489 148.085,149.843 147.362,150.55C146.638,151.258 146.277,152.104 146.277,153.09C146.277,154.11 146.638,154.973 147.362,155.68C148.085,156.388 148.94,156.74 149.927,156.74C150.946,156.74 151.801,156.388 152.492,155.68ZM152.64,186.78L152.64,162.117L147.214,162.117L147.214,186.78L152.64,186.78ZM165.366,186.78L165.366,174.646C165.366,172.081 165.958,170.092 167.142,168.678C168.325,167.264 169.855,166.556 171.729,166.556C173.307,166.556 174.557,167.108 175.478,168.209C176.398,169.311 176.859,170.848 176.859,172.821L176.859,186.78L182.285,186.78L182.285,171.933C182.285,168.809 181.429,166.31 179.72,164.435C178.01,162.561 175.724,161.624 172.863,161.624C169.411,161.624 166.911,162.906 165.366,165.471L165.366,162.117L159.94,162.117L159.94,186.78L165.366,186.78ZM203.988,186.164C205.402,185.424 206.487,184.528 207.244,183.475L207.244,186.78L212.67,186.78L212.67,149.785L207.244,149.785L207.244,165.422C206.487,164.37 205.402,163.474 203.988,162.734C202.574,161.994 201.029,161.624 199.351,161.624C195.997,161.624 193.177,162.874 190.892,165.373C188.606,167.872 187.464,170.897 187.464,174.449C187.464,178 188.606,181.026 190.892,183.525C193.177,186.024 195.997,187.274 199.351,187.274C201.029,187.274 202.574,186.904 203.988,186.164ZM192.988,174.449C192.988,172.213 193.679,170.338 195.06,168.826C196.441,167.313 198.2,166.556 200.338,166.556C202.475,166.556 204.235,167.313 205.616,168.826C206.997,170.338 207.688,172.213 207.688,174.449C207.688,176.685 206.997,178.56 205.616,180.072C204.235,181.585 202.475,182.341 200.338,182.341C198.2,182.341 196.441,181.585 195.06,180.072C193.679,178.56 192.988,176.685 192.988,174.449ZM236.05,183.426L236.05,186.78L241.476,186.78L241.476,162.117L236.05,162.117L236.05,174.251C236.05,176.85 235.507,178.847 234.422,180.245C233.337,181.643 231.874,182.341 230.032,182.341C228.454,182.341 227.237,181.774 226.382,180.639C225.527,179.505 225.1,177.951 225.1,175.978L225.1,162.117L219.674,162.117L219.674,176.866C219.674,180.023 220.495,182.547 222.14,184.437C223.784,186.329 226.02,187.274 228.848,187.274C232.203,187.274 234.603,185.991 236.05,183.426ZM264.437,185.375C266.229,184.109 267.125,182.309 267.125,179.973C267.125,176.126 264.938,173.643 260.565,172.525L256.422,171.44C254.218,170.881 253.117,169.895 253.117,168.48C253.117,167.691 253.445,167.074 254.103,166.63C254.761,166.187 255.632,165.965 256.717,165.965C258.888,165.965 260.236,166.984 260.762,169.023L266.188,169.023C265.991,166.787 265.037,164.995 263.327,163.646C261.617,162.298 259.43,161.624 256.767,161.624C254.005,161.624 251.785,162.257 250.108,163.523C248.431,164.789 247.592,166.458 247.592,168.53C247.592,172.377 249.696,174.86 253.906,175.978L257.95,177.063C259.265,177.392 260.203,177.803 260.762,178.296C261.321,178.789 261.601,179.464 261.601,180.319C261.601,181.174 261.239,181.823 260.515,182.267C259.792,182.711 258.821,182.933 257.605,182.933C254.613,182.933 252.919,181.717 252.525,179.283L246.902,179.283C247.033,181.717 248.093,183.657 250.083,185.103C252.072,186.551 254.53,187.274 257.457,187.274C260.318,187.274 262.644,186.641 264.437,185.375ZM286.856,186.484L286.856,181.65C286.099,181.98 285.129,182.144 283.945,182.144C282.498,182.144 281.446,181.823 280.788,181.182C280.13,180.541 279.802,179.464 279.802,177.951L279.802,166.951L286.856,166.951L286.856,162.117L279.802,162.117L279.802,155.261L274.376,155.261L274.376,162.117L269.246,162.117L269.246,166.951L274.376,166.951L274.376,178.839C274.376,181.502 275.157,183.533 276.719,184.931C278.28,186.329 280.311,187.027 282.811,187.027C284.323,187.027 285.672,186.846 286.856,186.484ZM297.411,186.78L297.411,174.745C297.411,172.377 297.986,170.527 299.138,169.195C300.289,167.864 301.686,167.198 303.331,167.198C304.35,167.198 305.254,167.346 306.044,167.642L306.044,162.068C305.484,161.937 304.777,161.87 303.923,161.87C302.508,161.87 301.185,162.298 299.952,163.153C298.719,164.008 297.872,165.126 297.411,166.507L297.411,162.117L291.986,162.117L291.986,186.78L297.411,186.78ZM316.007,155.68C316.698,154.973 317.043,154.11 317.043,153.09C317.043,152.104 316.698,151.258 316.007,150.55C315.316,149.843 314.461,149.489 313.442,149.489C312.456,149.489 311.6,149.843 310.877,150.55C310.153,151.258 309.792,152.104 309.792,153.09C309.792,154.11 310.153,154.973 310.877,155.68C311.6,156.388 312.456,156.74 313.442,156.74C314.461,156.74 315.316,156.388 316.007,155.68ZM316.155,186.78L316.155,162.117L310.729,162.117L310.729,186.78L316.155,186.78ZM338.204,186.164C339.617,185.424 340.702,184.528 341.459,183.475L341.459,186.78L346.885,186.78L346.885,162.117L341.459,162.117L341.459,165.422C340.702,164.37 339.617,163.474 338.204,162.734C336.789,161.994 335.244,161.624 333.567,161.624C330.213,161.624 327.393,162.874 325.107,165.373C322.822,167.872 321.679,170.897 321.679,174.449C321.679,178 322.822,181.026 325.107,183.525C327.393,186.024 330.213,187.274 333.567,187.274C335.244,187.274 336.789,186.904 338.204,186.164ZM327.204,174.449C327.204,172.213 327.894,170.338 329.276,168.826C330.657,167.313 332.416,166.556 334.554,166.556C336.691,166.556 338.45,167.313 339.831,168.826C341.213,170.338 341.903,172.213 341.903,174.449C341.903,176.685 341.213,178.56 339.831,180.072C338.45,181.585 336.691,182.341 334.554,182.341C332.416,182.341 330.657,181.585 329.276,180.072C327.894,178.56 327.204,176.685 327.204,174.449ZM359.66,186.78L359.66,149.785L354.234,149.785L354.234,186.78L359.66,186.78ZM393.3,186.164C394.714,185.424 395.799,184.528 396.556,183.475L396.556,186.78L401.982,186.78L401.982,149.785L396.556,149.785L396.556,165.422C395.799,164.37 394.714,163.474 393.3,162.734C391.886,161.994 390.34,161.624 388.663,161.624C385.309,161.624 382.489,162.874 380.204,165.373C377.918,167.872 376.776,170.897 376.776,174.449C376.776,178 377.918,181.026 380.204,183.525C382.489,186.024 385.309,187.274 388.663,187.274C390.34,187.274 391.886,186.904 393.3,186.164ZM382.3,174.449C382.3,172.213 382.991,170.338 384.372,168.826C385.753,167.313 387.512,166.556 389.65,166.556C391.787,166.556 393.547,167.313 394.928,168.826C396.309,170.338 397,172.213 397,174.449C397,176.685 396.309,178.56 394.928,180.072C393.547,181.585 391.787,182.341 389.65,182.341C387.512,182.341 385.753,181.585 384.372,180.072C382.991,178.56 382.3,176.685 382.3,174.449ZM427.976,184.955C430.113,183.41 431.56,181.437 432.317,179.036L426.644,179.036C425.526,181.338 423.454,182.489 420.429,182.489C418.291,182.489 416.533,181.848 415.151,180.565C413.77,179.283 413.047,177.688 412.981,175.781L432.613,175.781C432.876,171.637 431.84,168.242 429.505,165.595C427.17,162.948 424.096,161.624 420.281,161.624C416.499,161.624 413.441,162.832 411.107,165.249C408.771,167.666 407.604,170.733 407.604,174.449C407.604,178.165 408.788,181.231 411.156,183.648C413.524,186.065 416.549,187.274 420.232,187.274C423.257,187.274 425.838,186.501 427.976,184.955ZM424.375,167.617C425.592,168.587 426.398,170.026 426.792,171.933L413.129,171.933C413.49,170.092 414.304,168.67 415.571,167.666C416.836,166.664 418.358,166.162 420.133,166.162C421.744,166.162 423.158,166.647 424.375,167.617ZM453.848,185.375C455.639,184.109 456.536,182.309 456.536,179.973C456.536,176.126 454.349,173.643 449.975,172.525L445.832,171.44C443.628,170.881 442.527,169.895 442.527,168.48C442.527,167.691 442.855,167.074 443.514,166.63C444.171,166.187 445.043,165.965 446.128,165.965C448.298,165.965 449.646,166.984 450.173,169.023L455.599,169.023C455.401,166.787 454.447,164.995 452.738,163.646C451.027,162.298 448.841,161.624 446.177,161.624C443.415,161.624 441.195,162.257 439.518,163.523C437.841,164.789 437.003,166.458 437.003,168.53C437.003,172.377 439.107,174.86 443.316,175.978L447.361,177.063C448.676,177.392 449.613,177.803 450.173,178.296C450.732,178.789 451.011,179.464 451.011,180.319C451.011,181.174 450.649,181.823 449.926,182.267C449.202,182.711 448.232,182.933 447.016,182.933C444.023,182.933 442.33,181.717 441.935,179.283L436.312,179.283C436.443,181.717 437.504,183.657 439.494,185.103C441.483,186.551 443.941,187.274 446.868,187.274C449.729,187.274 452.055,186.641 453.848,185.375ZM467.288,155.68C467.979,154.973 468.324,154.11 468.324,153.09C468.324,152.104 467.979,151.258 467.288,150.55C466.598,149.843 465.742,149.489 464.723,149.489C463.737,149.489 462.881,149.843 462.158,150.55C461.435,151.258 461.073,152.104 461.073,153.09C461.073,154.11 461.435,154.973 462.158,155.68C462.881,156.388 463.737,156.74 464.723,156.74C465.742,156.74 466.598,156.388 467.288,155.68ZM467.436,186.78L467.436,162.117L462.01,162.117L462.01,186.78L467.436,186.78ZM494.689,194.475C497.007,192.404 498.166,189.328 498.166,185.251L498.166,162.117L492.741,162.117L492.741,165.422C491.951,164.304 490.849,163.392 489.436,162.684C488.021,161.978 486.492,161.624 484.848,161.624C481.526,161.624 478.723,162.832 476.438,165.249C474.152,167.666 473.01,170.618 473.01,174.103C473.01,177.623 474.152,180.59 476.438,183.007C478.723,185.424 481.526,186.632 484.848,186.632C486.492,186.632 488.021,186.271 489.436,185.547C490.849,184.824 491.951,183.903 492.741,182.785L492.741,185.695C492.741,187.997 492.107,189.781 490.841,191.047C489.575,192.313 487.972,192.946 486.032,192.946C482.447,192.946 480.178,191.532 479.225,188.704L473.898,188.704C474.226,191.335 475.468,193.472 477.622,195.117C479.775,196.761 482.53,197.583 485.884,197.583C489.436,197.583 492.371,196.547 494.689,194.475ZM478.485,174.103C478.485,171.933 479.192,170.133 480.606,168.702C482.02,167.272 483.763,166.556 485.835,166.556C487.907,166.556 489.649,167.272 491.063,168.702C492.477,170.133 493.184,171.933 493.184,174.103C493.184,176.274 492.477,178.074 491.063,179.505C489.649,180.935 487.907,181.65 485.835,181.65C483.763,181.65 482.02,180.935 480.606,179.505C479.192,178.074 478.485,176.274 478.485,174.103ZM510.892,186.78L510.892,174.646C510.892,172.081 511.484,170.092 512.668,168.678C513.852,167.264 515.38,166.556 517.255,166.556C518.834,166.556 520.083,167.108 521.004,168.209C521.924,169.311 522.385,170.848 522.385,172.821L522.385,186.78L527.811,186.78L527.811,171.933C527.811,168.809 526.955,166.31 525.246,164.435C523.536,162.561 521.25,161.624 518.39,161.624C514.937,161.624 512.437,162.906 510.892,165.471L510.892,162.117L505.466,162.117L505.466,186.78L510.892,186.78Z" style="fill:rgb(5,5,5);fill-rule:nonzero;"/>
    </g>
</svg>
