<svg width="48" height="48" viewBox="0 0 48 48" fill="none" xmlns="http://www.w3.org/2000/svg">
<path fill-rule="evenodd" clip-rule="evenodd" d="M24 0C37.255 0 48 10.7459 48 23.9997C48 35.9792 39.2236 45.9077 27.75 47.7083V47.7081C27.7503 47.708 27.7507 47.708 27.751 47.7079V30.9375H33.3423L34.4058 23.9993H34.4052L34.4058 23.9954H27.75V19.4944C27.75 19.471 27.7501 19.4475 27.7504 19.4241C27.7745 17.5525 28.7185 15.7537 31.6615 15.7537H34.6883V9.84791C34.6883 9.84791 34.6879 9.84785 34.6872 9.84774V9.84401C34.6872 9.84401 31.9408 9.3754 29.3153 9.3754C23.8331 9.3754 20.25 12.6974 20.25 18.7123V23.9997H14.1516V30.9379H14.1526V30.9418H20.25V47.7083C8.77318 45.9077 0 35.9824 0 23.9997C0 10.7481 10.745 0 24 0Z" fill="black"/>
</svg>
