<svg width="48" height="49" viewBox="0 0 48 49" fill="none" xmlns="http://www.w3.org/2000/svg">
<path fill-rule="evenodd" clip-rule="evenodd" d="M47.9472 24.3571C48.1693 37.6105 37.6493 48.3546 24.45 48.3546C11.2507 48.3546 0.370515 37.6105 0.148352 24.3571C-0.0738101 11.1036 10.4462 0.359558 23.6455 0.359558C36.8448 0.359558 47.725 11.1036 47.9472 24.3571ZM29.9371 16.1428C30.1929 15.9719 30.4937 15.8807 30.8014 15.8807C31.214 15.8807 31.6097 16.0446 31.9014 16.3363C32.1932 16.628 32.3571 17.0236 32.3571 17.4361C32.3571 17.7438 32.2658 18.0445 32.0949 18.3003C31.924 18.5561 31.681 18.7554 31.3967 18.8732C31.1125 18.9909 30.7997 19.0217 30.4979 18.9617C30.1961 18.9017 29.9189 18.7535 29.7014 18.536C29.4838 18.3185 29.3356 18.0413 29.2756 17.7396C29.2156 17.4379 29.2464 17.1251 29.3641 16.8409C29.4819 16.5567 29.6813 16.3138 29.9371 16.1428ZM23.8856 17.875C22.5929 17.8748 21.3292 18.258 20.2543 18.976C19.1794 19.6941 18.3416 20.7147 17.8468 21.909C17.352 23.1032 17.2225 24.4174 17.4747 25.6852C17.7268 26.9531 18.3493 28.1177 19.2633 29.0317C20.1774 29.9458 21.342 30.5683 22.6098 30.8204C23.8777 31.0725 25.1918 30.943 26.3861 30.4483C27.5803 29.9535 28.601 29.1157 29.3191 28.0408C30.0371 26.9658 30.4203 25.7021 30.4201 24.4095C30.4179 22.6771 29.7288 21.0162 28.5038 19.7913C27.2788 18.5663 25.618 17.8771 23.8856 17.875ZM23.8856 28.5953C23.0577 28.5953 22.2485 28.3498 21.5601 27.8898C20.8718 27.4299 20.3352 26.7762 20.0184 26.0113C19.7016 25.2464 19.6187 24.4048 19.7802 23.5929C19.9417 22.7809 20.3404 22.035 20.9258 21.4496C21.5112 20.8643 22.257 20.4656 23.069 20.3041C23.881 20.1426 24.7226 20.2255 25.4874 20.5423C26.2523 20.8591 26.906 21.3956 27.366 22.084C27.8259 22.7723 28.0714 23.5816 28.0714 24.4095C28.0703 25.5193 27.629 26.5833 26.8442 27.3681C26.0595 28.1529 24.9954 28.5942 23.8856 28.5953ZM18.4801 37.6774H29.0732C31.1862 37.6747 33.2119 36.8342 34.706 35.3401C36.2001 33.846 37.0406 31.8203 37.0433 29.7073V19.1142C37.0409 17.0011 36.2004 14.9753 34.7063 13.4812C33.2121 11.987 31.1863 11.1465 29.0732 11.1441H18.4801C16.3669 11.1463 14.341 11.9866 12.8467 13.4809C11.3525 14.9751 10.5121 17.0011 10.51 19.1142V29.7073C10.5124 31.8204 11.3529 33.8462 12.847 35.3404C14.3412 36.8345 16.367 37.675 18.4801 37.6774ZM14.6114 15.2442C15.6375 14.2179 17.0288 13.6407 18.4801 13.6391H29.0732C30.5246 13.6407 31.916 14.2179 32.9422 15.2442C33.9685 16.2704 34.5457 17.6618 34.5473 19.1132V29.7063C34.5457 31.1577 33.9685 32.5491 32.9422 33.5753C31.916 34.6016 30.5246 35.1788 29.0732 35.1804H18.4801C17.0288 35.1788 15.6375 34.6016 14.6114 33.5753C13.5853 32.549 13.0083 31.1576 13.007 29.7063V19.1132C13.0083 17.6619 13.5853 16.2705 14.6114 15.2442Z" fill="black"/>
</svg>
