<svg width="48" height="49" viewBox="0 0 48 49" fill="none" xmlns="http://www.w3.org/2000/svg">
<path fill-rule="evenodd" clip-rule="evenodd" d="M24.5154 48.3536C37.7106 48.3536 48.211 37.6097 47.9687 24.3566C47.7264 11.1034 36.8332 0.359558 23.638 0.359558C10.4428 0.359558 -0.0575196 11.1034 0.184774 24.3566C0.427068 37.6097 11.3203 48.3536 24.5154 48.3536ZM13.4471 20.332H17.8296V34.4118H13.4471V20.332ZM15.6394 13.3355C16.1411 13.3357 16.6315 13.4846 17.0486 13.7634C17.4656 14.0423 17.7907 14.4385 17.9827 14.902C18.1746 15.3655 18.2248 15.8756 18.127 16.3676C18.0291 16.8597 17.7876 17.3117 17.4329 17.6666C17.0782 18.0214 16.6263 18.2631 16.1343 18.3611C15.6422 18.4592 15.1322 18.4092 14.6686 18.2174C14.205 18.0256 13.8086 17.7007 13.5296 17.2838C13.2506 16.8668 13.1015 16.3765 13.1011 15.8748C13.1013 15.5414 13.1673 15.2114 13.2952 14.9035C13.4231 14.5956 13.6104 14.316 13.8464 14.0805C14.0824 13.8451 14.3625 13.6584 14.6707 13.5313C14.9788 13.4041 15.309 13.339 15.6424 13.3395L15.6394 13.3355ZM24.7768 20.3327H20.5789L20.5799 34.4105H24.9544V27.4493C24.9544 25.6131 25.2984 23.8345 27.5774 23.8345C29.8202 23.8345 29.8514 25.9329 29.8514 27.5673V34.4125H34.2249V26.6906C34.2249 22.8983 33.4097 19.9836 28.9787 19.9836C26.8521 19.9836 25.4205 21.1489 24.8343 22.2586H24.7768V20.3327Z" fill="black"/>
</svg>
