<svg width="88" height="24" viewBox="0 0 88 24" fill="none" xmlns="http://www.w3.org/2000/svg">
<path d="M24.2759 12C24.2759 18.6274 18.8415 24 12.1379 24C5.43434 24 0 18.6274 0 12C0 5.37258 5.43434 0 12.1379 0C18.8415 0 24.2759 5.37258 24.2759 12Z" fill="black"/>
<path fill-rule="evenodd" clip-rule="evenodd" d="M44.0799 19.0173C47.9999 19.0173 51.1778 15.8755 51.1778 12C51.1778 8.12445 47.9999 4.9827 44.0799 4.9827C40.1598 4.9827 36.9819 8.12445 36.9819 12C36.9819 15.8755 40.1598 19.0173 44.0799 19.0173ZM44.0799 24C50.7834 24 56.2178 18.6274 56.2178 12C56.2178 5.37258 50.7834 0 44.0799 0C37.3763 0 31.9419 5.37258 31.9419 12C31.9419 18.6274 37.3763 24 44.0799 24Z" fill="black"/>
<path d="M76.2043 23.8421C69.1489 23.8421 64.0436 18.5594 64.0436 12C64.0436 5.44063 69.1489 0.157895 76.2043 0.157895C82.331 0.157895 86.7402 3.89393 87.9926 8.94849H82.6091C81.682 6.49342 79.4067 4.71277 76.2043 4.71277C72.0732 4.71277 69.249 7.76428 69.249 12C69.249 16.2357 72.0805 19.2872 76.2116 19.2872C79.4141 19.2872 81.6893 17.5109 82.6165 15.0515H88C86.7476 20.1061 82.3383 23.8421 76.2116 23.8421" fill="black"/>
</svg>
