<svg width="84" height="24" viewBox="0 0 84 24" fill="none" xmlns="http://www.w3.org/2000/svg">
<path d="M23.1724 12C23.1724 18.6274 17.9851 24 11.5862 24C5.18732 24 0 18.6274 0 12C0 5.37258 5.18732 0 11.5862 0C17.9851 0 23.1724 5.37258 23.1724 12Z" fill="black"/>
<path fill-rule="evenodd" clip-rule="evenodd" d="M42.0762 19.0173C45.8181 19.0173 48.8515 15.8755 48.8515 12C48.8515 8.12445 45.8181 4.9827 42.0762 4.9827C38.3343 4.9827 35.3009 8.12445 35.3009 12C35.3009 15.8755 38.3343 19.0173 42.0762 19.0173ZM42.0762 24C48.4751 24 53.6624 18.6274 53.6624 12C53.6624 5.37258 48.4751 0 42.0762 0C35.6773 0 30.49 5.37258 30.49 12C30.49 18.6274 35.6773 24 42.0762 24Z" fill="black"/>
<path d="M72.7404 23.8421C66.0058 23.8421 61.1325 18.5594 61.1325 12C61.1325 5.44063 66.0058 0.157895 72.7404 0.157895C78.5887 0.157895 82.7975 3.89393 83.993 8.94849H78.8542C77.9692 6.49342 75.7973 4.71277 72.7404 4.71277C68.7971 4.71277 66.1013 7.76428 66.1013 12C66.1013 16.2357 68.8042 19.2872 72.7475 19.2872C75.8043 19.2872 77.9762 17.5109 78.8612 15.0515H84C82.8045 20.1061 78.5957 23.8421 72.7475 23.8421" fill="black"/>
</svg>
